<svg xmlns="http://www.w3.org/2000/svg" version="1.1" xmlns:xlink="http://www.w3.org/1999/xlink" width="300" height="300"><svg viewBox="0 0 300 300" width="300" height="300" xmlns="http://www.w3.org/2000/svg"><g transform="matrix(1 0 0 1 150 150)"><path style="stroke: none; stroke-width: 1; stroke-dasharray: none; stroke-linecap: butt; stroke-dashoffset: 0; stroke-linejoin: miter; stroke-miterlimit: 4; fill: rgb(33,49,39); fill-rule: evenodd; opacity: 1;" transform=" translate(-150, -150)" d="M 182.069 196.649 C 214.738 204.392 241.293 201.941 262.647 192.972 C 264.06 192.378 265.446 191.758 266.804 191.113 C 280.021 184.838 300 193.218 300 207.848 L 300 207.848 C 300 216.875 292.453 223.983 283.469 224.865 C 276.864 225.514 270.393 226.706 264.068 228.382 C 233.364 236.513 207.186 255.722 186.237 276.797 C 182.606 280.449 179.113 284.177 175.761 287.94 C 169.117 295.398 159.751 300 149.762 300 L 77.9478 300 C 75.7906 300 74.692 297.413 76.1917 295.862 L 76.1917 295.862 C 81.9265 289.932 87.8058 283.853 92.8475 278.229 C 101.788 268.256 110.335 257.386 115.278 245.792 C 120.413 233.749 121.838 220.431 115.706 206.781 C 109.835 193.713 97.7678 182.026 79.7448 171.032 L 79.7448 171.032 C 40.9855 147.389 0 111.037 0 65.6356 L 0 36 L 0 36 C 0 32.2308 4.06154 30.2301 7.30132 32.1565 C 13.2087 35.669 18.7967 39.8887 23.8375 44.945 C 35.6013 56.7452 45.5103 70.297 55.288 84.8045 C 58.1455 89.0443 61.0259 93.4208 63.9463 97.8581 C 70.8025 108.276 77.8795 119.029 85.4 129.136 C 107.36 158.651 135.064 185.51 182.069 196.649 Z M 203.258 293.717 C 200.919 296.07 202.619 300 205.937 300 L 264 300 C 283.882 300 300 283.882 300 264 L 300 264 C 300 255.27 293.125 247.916 284.45 248.895 C 279.583 249.443 274.837 250.357 270.213 251.582 C 245.155 258.218 222.558 274.301 203.258 293.717 L 203.258 293.717 Z M 46.9682 291.71 C 45.238 293.571 43.5091 295.461 41.7978 297.38 C 40.3222 299.036 38.2175 300 36 300 L 36 300 C 16.1178 300 0 283.882 0 264 L 0 244.436 C 0 204.397 33.0652 170.67 67.2464 191.521 L 67.2464 191.521 C 83.323 201.328 90.7677 209.836 93.814 216.617 C 96.5993 222.817 96.3468 229.002 93.2014 236.379 C 89.865 244.204 83.5289 252.67 74.9773 262.209 C 69.9682 267.796 64.9083 273.015 59.6315 278.457 L 59.6293 278.459 C 55.5629 282.653 51.3679 286.98 46.9682 291.71 Z M 33.769 21.541 C 24.8697 14.1246 24.4155 0 36 0 L 36 0 L 58.4919 0 C 72.3483 0 85.1286 7.01938 93.4 18.1361 L 93.4 18.1361 C 115.36 47.6507 143.064 74.5097 190.069 85.6494 C 222.738 93.3919 249.293 90.9412 270.647 81.9717 L 270.647 81.9717 C 283.009 76.7792 300 84.7305 300 98.1386 L 300 116.23 C 300 119.465 299.354 122.677 297.941 125.587 C 295.589 130.434 292.826 135.352 289.59 140.128 C 281.024 152.767 269.344 164.128 253.353 170.845 C 237.441 177.528 216.184 180.07 187.603 173.296 C 148.107 163.936 124.733 141.795 104.655 114.81 C 97.561 105.275 91.1117 95.4741 84.4396 85.3341 L 84.4389 85.3331 C 81.4279 80.7569 78.3714 76.1118 75.1898 71.3912 C 65.1695 56.5237 54.2425 41.4504 40.8342 28.0007 C 38.5483 25.7077 36.1886 23.5574 33.769 21.541 Z M 264 0 L 114.586 0 C 112.616 0 111.479 2.22902 112.655 3.80955 L 112.655 3.80955 C 132.733 30.795 156.107 52.936 195.603 62.2963 C 224.184 69.0697 245.441 66.5283 261.353 59.8445 C 277.344 53.1276 289.024 41.7674 297.59 29.1278 L 297.59 29.1278 C 298.441 27.8715 298.711 26.2997 298.242 24.8565 C 293.55 10.4286 279.993 0 264 0 Z" stroke-linecap="round"></path></g></svg><style>@media (prefers-color-scheme: light) { :root { filter: none; } }
@media (prefers-color-scheme: dark) { :root { filter: none; } }
</style></svg>