<svg width="420" height="123" viewBox="0 0 420 123" fill="none" xmlns="http://www.w3.org/2000/svg">
<path fill-rule="evenodd" clip-rule="evenodd" d="M420 123H63.943C63.311 123 62.6835 122.982 62.0606 122.946L62.103 123H-6.61612e-06C-6.61612e-06 123 14.6176 118.86 22.5411 108.279C30.7396 97.3313 31.7415 83.8981 31.7415 83.8981V65.0372C31.7415 47.2528 46.1586 32.8357 63.943 32.8357H381.358L380.898 32.4786C380.898 32.4786 394.331 31.4764 405.279 23.2783C415.86 15.3549 420 0.737224 420 0.737224V62.84L419.922 62.7795C419.974 63.5253 420 64.2782 420 65.0372V123Z" fill="#F9F7F5" style="fill:#F9F7F5;fill:color(display-p3 0.9765 0.9686 0.9608);fill-opacity:1;"/>
</svg>
