<svg viewBox = "0 0 457 133" width="457" height="133" xmlns="http://www.w3.org/2000/svg"><g transform="matrix(1 0 0 1 228.25 66.44)"  ><path style="stroke: none; stroke-width: 1; stroke-dasharray: none; stroke-linecap: butt; stroke-dashoffset: 0; stroke-linejoin: miter; stroke-miterlimit: 4; fill: rgb(250,247,245); fill-rule: evenodd; opacity: 1;"  transform=" translate(-228.25, -66.44)" d="M 0 0 L 387 0 C 387.687 0 388.369 0.0197754 389.046 0.0587769 L 389 0 L 456.5 0 C 456.5 0 440.612 4.5 432 16 C 423.089 27.8994 422 42.5 422 42.5 L 422 63 C 422 82.33 406.33 98 387 98 L 42 98 L 42.5 98.3882 C 42.5 98.3882 27.8994 99.4774 16 108.388 C 4.5 117 0 132.888 0 132.888 L 0 65.3882 L 0.0846939 65.454 C 0.0285416 64.6433 0 63.825 0 63 L 0 0 Z" stroke-linecap="round" /></g></svg>