<svg width="420" height="123" viewBox="0 0 420 123" fill="none" xmlns="http://www.w3.org/2000/svg">
<path fill-rule="evenodd" clip-rule="evenodd" d="M0 0.737183L356.057 0.737183C356.689 0.737183 357.316 0.755377 357.939 0.79126L357.897 0.737183L420 0.737183C420 0.737183 405.382 4.87738 397.459 15.4579C389.26 26.4059 388.258 39.839 388.258 39.839V58.6999C388.258 76.4844 373.841 90.9015 356.057 90.9015L38.6418 90.9015L39.1019 91.2586C39.1019 91.2586 25.6687 92.2607 14.7207 100.459C4.1402 108.382 0 123 0 123L0 60.8972L0.0779221 60.9577C0.0262595 60.2119 0 59.459 0 58.6999L0 0.737183Z" fill="#F9F7F5" style="fill:#F9F7F5;fill:color(display-p3 0.9765 0.9686 0.9608);fill-opacity:1;"/>
</svg>
